<?xml version="1.0" encoding="UTF-8"?>
<svg id="Layer_1" xmlns="http://www.w3.org/2000/svg" xmlns:time="http://www.adobe.com/sketch/time" xmlns:sketch-meta="http://www.adobe.com/sketch/meta" xmlns:sketch="http://www.adobe.com/sketch" version="1.1" viewBox="0 0 1895.7 1215">
  <!-- Generator: Adobe Illustrator 29.1.0, SVG Export Plug-In . SVG Version: 2.1.0 Build 142)  -->
  <defs>
    <style>
      .st0 {
        fill: #fff;
      }
    </style>
  </defs>
  <path d="M670,596.1c12.2-22.3,6.2-49.2-10.8-67.2-14.7-25.1-42.6-35.2-67.4-47.4-17.1-3.6-34.1-7.7-50.1-15.1-5.1-2-11.5-1.5-15.9-5-39,12.7-69.8,51.3-70.7,92.7-2.8,18.4-5.7,38.7,1.2,56.5,12.9,18.1,24.5,43.4,49,46.5,10.1,2.8,20.6,3.9,30.8,6.5,7.4,3.2,15.2,4,23.2,3.2,9.8-.6,18.2-6.3,27.7-8.2,15.5-3.2,31.6-8.2,44.5-17.8,16.8-11.3,29.1-26.9,38.5-44.7ZM975.6,787c-10.7-6.3-22.5-11.9-30.5-21.7,1,24.3-10,16.2-26.1,14.9-8.1,0-16-1.5-24,.2-7.6-.2-14.9-2.3-22.6-2-.4.6-1,.9-1.8,1-.8,9.4-.7,19.2,1.8,28.4,17-3.9,33.9-1.3,51-1.4,15.4-2.9,17.3,8.3,19.7,20.3,13.2-10.7,23.2-25.6,32.5-39.6ZM1422.7,581.7c.7-9.3-5-17.3-8.5-25.5-12.9-23.7-42.3-28-63.3-42.3-14.7-5.9-33.4-4.2-46.1-14.1-14.7,3-30.4,7.2-42.9,15.7-17,16.7-27.4,40.1-31.6,63.4-10,28.8-5.5,58.4,14.9,81.5,15.2,15.2,44.5,17.8,65,18.2,8.8-2.1,17.8-2.6,26.6-4.8,8.7-3.4,16.3-8.3,25.1-11.3,13.2-5.7,28.2-10.6,38.2-21.3,14.1-16.4,20.8-38.1,22.6-59.4ZM1767.1,289.4c3.9,47.6-12,93.8-20.6,140-2.3,23.3,4.1,46.4,3.4,69.6-.7,14.9-2.4,29.7-3.4,44.5-1.8,23.7,1.9,47.3,1,71,0,33.9-4.1,67.8-2.4,101.7.7,19.5,7.4,38,9.9,57.2,2.7,31.3,0,70.4-28.6,89.3-12.1,7-26.6,5.8-39.8,3.3-14-2.5-28.3-2.1-42.4-3.1-10.1-1.7-20.4-.6-30.6-2.1-17.6-3.2-35-8.7-53-8.3-11,1.1-21.7,5.3-32.9,4.7-16.6-2.9-33.2-6.9-50.2-3.5-74.5,17-150.8,10.2-226.6,13.5-19.2.4-38.7-.8-57.5-4.6-18.2-4.7-35.1-8.7-53.7-7.2-35.2-.9-68.9,10.1-103.7,14.3-13.8,2.6-28.1,5.2-42.1,2.8-40.8-8.6-82.2-14.8-124.1-12.5-15,.8-29.3-3.9-44-6-11-1.3-21.9-2.8-32.8-4.8-24.1-3.1-48.4,3-72.7.7-24.6,0-47.3-11.8-71.9-12.3-29.6-2.5-57.6,11.1-87.1,9.9-21.5.1-42.9,0-64.3-.2-8.4.2-16.7-3.9-24.8-4-16.1,0-31.9-3.8-48-3.9-26.9,1.8-53.5,8-80.5,9-13.5-.6-26.6-4.2-39.9-5.8-16.9,2.7-33.7.4-49.9-5.2-9.9-.9-19.7-.3-28.7-5.3-6.3-1.6-13-2.6-18-7.3-9.2-3-16.9,4.2-25.2,6.8-18.3,3.4-41.7,2.6-52.9-14.6-11.6-16.5-5-37.4-4.4-56.1-.1-31.1-.8-62.2-.9-93.3-1.6-31.3,1-62.5,1.6-93.8-1.4-45.1-2.3-90.1,3.5-135,6.4-47.1,3.6-93,.7-140-1-12.4.2-24.7.4-37.1-1-7-2.3-13.9-1.1-21,1-17.7,4.7-35,5.2-52.7.5-11.2,2.7-22.3,4-33.4.9-5,7.6-4.8,8.8-.8,2-.4,4-.4,5.8-.2,4.7-2.4,9.7-2.9,14.8-2.8,4.3-4,13.3,0,19.1,0,5.7.3,11.4,0,17.1-.3,38.9-3.3,77.6,2,115.7,9.8,40,5.8,80.8,4.7,121.2,7.9,47.4,2.4,94.4-6.8,141.3-12.7,31.8-4.9,64-4.6,95.9-8.2,37.2-1.7,73.9,9.3,110.9,10.1,41.8-4.4,83.9.8,125.7.2,17.3-2.6,34.5-.7,51.8.2,31.7-1.9,63.4-1.9,95.1-2.1,42.2,7.4,84.6-.8,126.7-5,47.4-.3,94.4-6,141.7-7.3,33.2-1.5,65.7,5.2,98.6,6.8,26.6-.3,53-4.8,79.6-5.7,22.6-1.5,45.1,1.7,67.7.2,27.8.4,55.4,3.7,83.2,5.1,17-.9,32.9-4.5,50-3.6,16.5-.9,26.7,13.8,28.7,28.9,3.4,12.2,6.6,24.3,8.5,36.8,9.7,24.9,20.5,49.9,21.4,77.2Z"/>
  <path d="M531.5,1141.9c11.2-32.8-15.7-47.4-44.7-37.4-10,17.3-33.6,60,3.9,58.8,14.9-2.5,31.7-9.1,40.8-21.4ZM680.4,1142.3c62.1-9.3,41.1-112.6-21.5-73.7,3.4,4.6-6.9,17.5-8.5,23.2,12.4,9.7,2.5,20.7-5.3,12.2-11.2,25.6,14.1,36.4,35.3,38.3ZM1218.1,1115.4c8.4-10.9,21.4-32.3,5.1-41.8-32.2-26.2-84.7,3.8-65.9,45,7.9,3.5,7.7,16.2,15.8,20.1,15.3-6.9,33.5-10.4,45.1-23.3ZM1415.9,1124.9c3.7-33.3-30.3-33.2-52.1-21.1-6,13-17.3,24.3-18.9,39.1-.5,19.6,24.6,24.8,40.2,24.1,21.9-.2,29.5-23.8,30.8-42.1ZM1865.1,952.8c8.5-54.6,11.2-59.4-6-112.8-2.9-11.5-1.4-23.8-4.8-35.1-5.1-8.3-15.4-12.7-18.4-22.4-2.1-6.1-1.7-12.7-2.8-19-3.8-15.1-11.1-29.3-12-45-1.6-18.3-6.1-36.4-5.3-54.9.7-13.3,2.5-26.5,2.9-39.8.6-12.1-1.8-23.9-2.8-35.9-1.7-27.1.9-54.3-.9-81.3-2.2-28.6-5.4-57.4-3.3-86,3-21.9,3.8-44,6.5-65.9-.1-46.1,3.7-92.2,8.3-138.1,1.6-22.2,7.1-44,6.2-66.4,3.2-42.2-10.1-59.5-51.6-68.7-34.3-11-69.9-13.1-105.7-13.4-20.8.2-41.2-4.6-62-4.4-30.1,1.1-60.1,6.4-90.3,5.8-45.3-2.5-90.8-.5-136.1-1.2-17.3-.7-34.1-5.6-51.5-4.8-25,.8-50-1.5-75-.6-25.1-1.1-50,3.6-75.1,1.5-14.4.1-28.5-2.3-42.7-3.7-33,.8-66.1,1.1-99-3.5-53.9.2-107.3,10.2-161,11.5-40.2,1.1-80.3,1.7-120.4,4.9-25.9,2.7-51.7,6.9-77.8,7.9-54.9-3-110-6.2-164.8-11.3-13.1-2.1-26.4-1.5-39.5-1.2-21.7-.9-43.3-3-65.1-1.9-45.4-1.1-91-6.2-136.4-1.9-13.5.9-26.9-.5-40.4-.6-20.1.6-40.1,1.9-60.2.3-35.8-.8-71.4,4.4-106.8,8.6-30.5,24.5-39.7,55.7-39,93.6-.9,24.4,5.9,48.2,4,72.6-1.3,26.9,2,53.2,7.1,79.5,3.2,16.2,1.9,32.6,2.6,48.9,3.7,32.9,4.8,65.9,7.7,98.9,2.3,21.6,5.6,43.1,6.6,64.7.7,27.3-.9,54.6.6,81.9-.1,41.4-6.2,82.6-7.6,124-.6,11.3-.9,22.5-2.4,33.7-.7,9.3,1.4,19.4-2.8,28-6.8,8.4-12.5,7.4-12,20.8-2.3,63.8-11,127-8.8,190.9-.5,33.9-2,68.9,12.3,100.6,1,3.2,4.2,4.3,6.8,6.1,13.2,11.5-1.2,32,8.4,45,18.5-2.8,20.2,6.5,30.5,17.6,6.3,3,14,1.2,20.8,2.7,5.9.7,11.4,2.9,17,4.7,5.8.7,11.7-.5,17.5-.7,13.2-.6,26.3-1.9,39.5-2.4,6.6-.2,12.7,2.5,19.1,3.5,6.6,0,13.1-.3,19.7.4,22.2,3.5,44.1,8.7,66.5,10.1,4.1-2.3,12.5-2.4,15.5-4.2,12.4-5.3,14.1-40.9,17.3-53.9,4.5-22.1,13.5-43.1,17.6-65.4,5.3-31.7,9.4-63.6,18.8-94.4,5-21.1,14.1-44.2,35.9-52.4,12.5-1.9,25.6,1.3,38.3,1.3,28,4,27.8-10.3,62.2-1.6,25,.8,49.9,5,75.1,3.4,20.4-2.2,40.5,3.1,60.9,1.7,24.6.2,49-5.2,73.5-1.3,19.4,0,37.6,6.1,56.4,10.1,24.1.6,47.7,4.1,71.5,7.3,18.5,3.4,36.9,2.6,55.4.3,16.9.5,33.5,4.9,50.6,4.6,14.1,2.5,28.2,3.4,42.6,2.2,17.4.9,34.3,7.3,51.9,5.7,27.2-6.1,55.1-6.3,82.7-9.3,38.7-10.7,78.6-15.6,118.1-22.7,20-.8,39.8-4.5,59.8-3.4,17.8-1,35.2,6.3,52.8,2.4,16.8-3.7,33.9,1.7,50.8-1.6,15.7-3.5,31.5-5.6,47.6-5.1,12.3-1,24.4-5,36.8-4.4,27.3-.7,35.7,11.5,42.4,36.8,6.7,18.5,14.1,37.2,15.9,56.9,1.9,18.4-1,37,3,55.1,5.1,16.6,11,32.8,15.2,49.7,2.2,12.1,7.5,22.9,15.3,32.4,3.5,4.8,4.9,10,8.8,13.4,4.4,3.7,12.8,2.9,15,8,37.7.6,76.6-6.5,112.8,6.6,23.6,7.8,50.2,15.1,73.4,2.1,18.1-8.4,38.6-14.7,49.8-32.5,8.1-9.8,1.6-23.8,9.2-33.7,5.3-7.5,12-14,17.3-21.6,2-3.3,4.4-6.6,7.9-8.5-1.2-21-5.2-42-4.1-63.2,1.2-22.2,3.5-44.4,6-66.6ZM1872.4,838c5.5,20.4,13.7,40.5,13,62-4,43.4-13.4,86.5-13.1,130.3-2.5,14.3,12.9,64.6-3.9,64.7-5.7,9-13.2,16.5-19.6,25-3.9,6.3-.8,14.3-3.3,21.1-2,7.6-6.5,14.3-11.7,20.1-8.8,10.5-20.7,17.3-33.3,22.5-11.1,4.7-21.6,11-33.5,13.6-22.2,5.9-44.8-1.6-66-8.1-40.3-15.1-84-.5-125-7.9-11-3.6-19.7-11.8-30.5-15.7-34.7-9.1-73.6,17.3-107.3,24.4-40,6.1-81.1.8-121.1-3.5-16.8-4.1-35.9.9-51.2-8.5-8.2-6.5-15.6-14.6-26.4-16.4-19.5-2.5-39.6-1.1-58.8,2.8-52.8,11.3-105.9,20.1-159.6,25.7-33.2,5.6-67.1,6.7-100.4,1.8-25.9-.7-51.2,5.2-77,5.3-23.4.6-46.7-6.2-70-2.3-21.6,4.6-43.5.9-65.3,2-12.1,0-24.2.5-36.3,1.4-11.9-.4-23.7-2.2-35.7-.9-8,.5-15.7,2.9-23.7,4-14.5,2.1-29-.3-43.4-1.8-10.3-.8-20.5,2.5-30.8.5-5.5-.8-11.3,1.5-16.6,0-6.8-4.5-14.2-2.3-21.5,0-15.4,3.2-31.1,5.7-46.9,5.3-13.8-2-27.5-.5-41.2,1.8-11.5,1.3-22.9-1.4-34.4-.5-14.3.4-28.4,2.5-42.7,2.1-15.5-1.1-30.6,4.1-46.1,2.7-20.7-1.1-41.1-3.4-61.2-8.7-15.6-2.8-31.4-.6-46.8-5.2-24.8-.6-50.4,7.9-74.1-1.6-10.3-2.4-22.5.7-30.9-7-6.8-5.1-8.3-17.3-19.1-14.6-18.8.9-19.4-23.5-17.6-37.1,1.8-12.2-4-9.1-9.5-16.8-13.2-25.6-16.5-55.3-15.1-83.8,1.5-47.7-.1-95.6,4.9-143.1,3-27.6,3.8-55.2,5.3-82.9.4-13.6,13.4-13.1,13.4-23.5,1-36.1,3.9-72.2,5.9-108.3,4.6-32.1,4.6-63.5,4-95.6-.2-19.8.6-39.6-.4-59.3-2.6-29.5-7.8-58.8-8.6-88.5-1.8-23.3-3.2-46.2-5.4-69.4,1.1-24.5-2.2-48.6-5.9-72.8-5.8-26.2-1-53.2-2.6-79.8-7-49.8-7.5-109.5,35.1-144-4.3-8.8,5.4-11.6,12.4-11,42.1-6.5,85.8-10.1,128.8-7.7,22.5-1,44.9-1.2,67.3-.2,51.7-4.6,103.4,1.2,155.2,1.7,15.3-.6,30.6.4,45.8,1.8,17.6.8,35.3-1.1,52.8,1.9,54.5,4.7,109.1,8.8,163.7,11,21.7-1.3,43-3.5,64.4-6.7,42.2-3.7,84.5-4.4,126.8-5.5,56.4-.9,112.3-12.2,168.8-11.4,33,5,66.2,3.3,99.4,3.5,17.7,2.5,35.5,3.6,53.4,4.1,49.9-3.4,99.9-1.9,149.9-1.1,17.9,1.7,35.5,5.7,53.6,4.6,28.2.3,56.5-.7,84.7-.3,19.7.5,39.8,2.3,59.3.7,23.7-1.2,47.3-5.2,71.1-5.2,17.9.3,35.4,4.2,53.3,4.3,29,1.2,58.5-.2,86.7,7.5,21,5,43.4,8.6,61.8,20.3,27.9,14.9,27.4,49.2,26.2,76.8-6.2,66.8-14.9,133.7-14.8,201-4.2,37.9-8.5,75.8-5.6,113.9,4,31.5,3.2,63.1,3.2,94.7-.9,18.5,3.7,36.7,3.2,55.2-1.6,26.6-5.1,53.1.8,79.5,1.7,10.8,1.7,22,5.4,32.4,4.7,13,9.3,26.1,9.7,40.1,3,10.9,16.8,15.1,19.6,26.6,2.9,11.7,1.8,24,4.5,35.8Z"/>
  <path d="M1724.2,1025.8c16.8,27.5,24.9,66.4,4.9,94.3-14.9,19.1-45.1,47.5-70.8,34.2-24.7-10.5-28.7-39.9-40.9-60.9l.2.3c-8.1-13-13.8-27.5-11.7-43.1-17,7.3-5-26.8,3.4-29.6.6-4.1,5-6.9,8.9-5.7,14.9-10.3,28.2-13.1,46-10.8,22.8-.2,48.2-3.1,60.1,21.3Z"/>
  <path d="M327.1,1038.1c2.7,7.6,14,34.3,1.6,36.5-7.7,1.1-7.7-8.9-11.1-21.7-1.6,5-4.8,9.5-9.7,12.8-1.1.6-2.1,1.6-3.2,2.7-.3,1.9-.7,3.8-.7,5.3-1.6,22.9-2.3,48.6-18.5,66.7-11.9,9-24.4,22.8-40.7,20.8-21.1,1.9-38.5-10.1-57.7-16.7-16.9-6.8-38.6-10.8-47.8-28.2-10.9-16.7-4.9-35.9-1.6-53.9,3.3-39.5,39.4-64.1,75.7-70.8,21.4-3.2,43.9.4,65,4.6,11.8,3.9,21.9,11.7,32.4,18,7.6,6.2,11.8,15.4,16.2,24Z"/>
  <path class="st0" d="M328.7,1074.6c12.4-2.2,1-28.9-1.6-36.5-4.4-8.5-8.6-17.8-16.2-24-10.5-6.4-20.6-14.1-32.4-18-21.1-4.3-43.6-7.9-65-4.6-36.3,6.7-72.4,31.4-75.7,70.8-3.2,18.1-9.3,37.2,1.6,53.9,9.2,17.5,30.9,21.4,47.8,28.2,19.2,6.5,36.6,18.6,57.7,16.7,16.2,2.1,28.8-11.7,40.7-20.8,16.2-18.1,16.9-43.8,18.5-66.7,0-1.5.3-3.4.7-5.3,1.1-1.1,2.2-2.1,3.2-2.7,4.9-3.3,8-7.8,9.7-12.8,3.3,12.8,3.4,22.8,11.1,21.7ZM1729.1,1120.1c20.1-27.9,12-66.8-4.9-94.3-11.8-24.3-37.2-21.5-60.1-21.3-17.8-2.3-31.1.6-46,10.8-4-1.3-8.3,1.6-8.9,5.7-8.4,2.8-20.4,36.9-3.4,29.6-2.1,15.5,3.6,30.1,11.7,43.1l-.2-.3c12.2,21,16.2,50.5,40.9,60.9,25.7,13.4,55.9-15.1,70.8-34.2ZM1746.6,429.4c8.6-46.2,24.5-92.4,20.6-140-.8-27.3-11.6-52.3-21.4-77.2-1.9-12.5-5.1-24.6-8.5-36.8-2-15-12.2-29.7-28.7-28.9-17.1-.9-32.9,2.7-50,3.6-27.7-1.4-55.4-4.7-83.2-5.1-22.6,1.4-45.1-1.7-67.7-.2-26.6.9-53,5.4-79.6,5.7-32.9-1.6-65.5-8.3-98.6-6.8-47.3,1.3-94.3,6.9-141.7,7.3-42.1,4.2-84.5,12.3-126.7,5-31.7.1-63.5.1-95.1,2.1-17.3-.9-34.6-2.8-51.8-.2-41.8.6-84-4.6-125.7-.2-37.1-.8-73.7-11.8-110.9-10.1-31.9,3.5-64.1,3.3-95.9,8.2-46.9,5.9-93.9,15.1-141.3,12.7-40.3-3.2-81.1-2.2-121.2-7.9-38-7.8-76.8-13.1-115.7-9.8-5.7.3-11.4.6-17.1.3-5.7,0-14.7-4-19.1,0-5.1,0-10.1.4-14.8,2.8-1.7-.1-3.8-.1-5.8.2-1.2-4-8-4.2-8.8.8-1.4,11.1-3.6,22.2-4,33.4-.5,17.7-4.2,35.1-5.2,52.7-1.2,7,0,14,1.1,21-.3,12.4-1.5,24.7-.4,37.1,2.9,47,5.7,92.9-.7,140-5.7,44.9-4.9,89.9-3.5,135-.6,31.3-3.2,62.5-1.6,93.8,0,31.1.7,62.2.9,93.3-.6,18.6-7.2,39.6,4.4,56.1,11.2,17.2,34.6,18,52.9,14.6,8.3-2.7,16.1-9.9,25.2-6.8,4.9,4.7,11.6,5.7,18,7.3,9.1,5,18.9,4.4,28.7,5.3,16.2,5.6,33,7.8,49.9,5.2,13.3,1.7,26.5,5.2,39.9,5.8,27-1,53.6-7.2,80.5-9,16.1,0,31.9,3.9,48,3.9,8.2.1,16.5,4.1,24.8,4,21.5.2,42.9.3,64.3.2,29.5,1.2,57.5-12.3,87.1-9.9,24.6.6,47.3,12.3,71.9,12.3,24.3,2.3,48.6-3.8,72.7-.7,10.9,1.9,21.8,3.5,32.8,4.8,14.7,2.1,29,6.9,44,6,41.9-2.3,83.2,3.9,124.1,12.5,14,2.4,28.3-.2,42.1-2.8,34.7-4.2,68.4-15.2,103.7-14.3,18.6-1.6,35.5,2.4,53.7,7.2,18.9,3.8,38.3,5,57.5,4.6,75.8-3.3,152.1,3.5,226.6-13.5,17-3.4,33.6.6,50.2,3.5,11.2.7,21.9-3.6,32.9-4.7,18.1-.4,35.5,5.1,53,8.3,10.1,1.5,20.5.4,30.6,2.1,14.1,1,28.4.6,42.4,3.1,13.2,2.5,27.7,3.7,39.8-3.3,28.6-19,31.2-58.1,28.6-89.3-2.5-19.2-9.2-37.7-9.9-57.2-1.8-33.9,2.5-67.8,2.4-101.7,1-23.7-2.8-47.3-1-71,1.1-14.8,2.8-29.6,3.4-44.5.8-23.3-5.7-46.3-3.4-69.6ZM1859.1,840c17.2,53.4,14.5,58.2,6,112.8-2.5,22.1-4.8,44.3-6,66.6-1.1,21.2,3,42.2,4.1,63.2-3.6,1.8-5.9,5.1-7.9,8.5-5.3,7.6-12,14.1-17.3,21.6-7.6,10-1.1,23.9-9.2,33.7-11.2,17.9-31.7,24.1-49.8,32.5-23.2,13-49.8,5.7-73.4-2.1-36.2-13.2-75.1-6-112.8-6.6-2.2-5-10.6-4.3-15-8-3.9-3.4-5.4-8.7-8.8-13.4-7.8-9.5-13.1-20.3-15.3-32.4-4.2-16.8-10.1-33.1-15.2-49.7-4.1-18.2-1.2-36.8-3-55.1-1.8-19.7-9.3-38.4-15.9-56.9-6.7-25.2-15.1-37.5-42.4-36.8-12.5-.6-24.5,3.4-36.8,4.4-16.1-.6-31.9,1.6-47.6,5.1-16.9,3.2-34-2.1-50.8,1.6-17.6,3.9-35-3.4-52.8-2.4-20-1-39.8,2.6-59.8,3.4-39.5,7.1-79.4,12-118.1,22.7-27.6,3-55.5,3.2-82.7,9.3-17.6,1.5-34.5-4.9-51.9-5.7-14.3,1.2-28.4.3-42.6-2.2-17.1.3-33.6-4.1-50.6-4.6-18.5,2.3-36.9,3.1-55.4-.3-23.8-3.2-47.5-6.8-71.5-7.3-18.7-4-36.9-10.1-56.4-10.1-24.5-3.9-49,1.5-73.5,1.3-20.4,1.4-40.5-4-60.9-1.7-25.2,1.6-50-2.6-75.1-3.4-34.4-8.7-34.2,5.6-62.2,1.6-12.7,0-25.7-3.2-38.3-1.3-21.8,8.2-31,31.4-35.9,52.4-9.4,30.9-13.5,62.7-18.8,94.4-4.1,22.3-13.1,43.3-17.6,65.4-3.2,12.9-4.8,48.6-17.3,53.9-2.9,1.9-11.4,1.9-15.5,4.2-22.4-1.4-44.3-6.6-66.5-10.1-6.5-.7-13.1-.5-19.7-.4-6.4-1-12.5-3.7-19.1-3.5-13.2.5-26.3,1.8-39.5,2.4-5.8.2-11.7,1.4-17.5.7-5.6-1.8-11.1-4-17-4.7-6.8-1.5-14.5.4-20.8-2.7-10.3-11.1-12-20.5-30.5-17.6-9.7-13.1,4.7-33.5-8.4-45-2.5-1.8-5.7-2.9-6.8-6.1-14.3-31.7-12.8-66.7-12.3-100.6-2.3-63.9,6.4-127.1,8.8-190.9-.5-13.4,5.2-12.4,12-20.8,4.2-8.7,2.1-18.7,2.8-28,1.5-11.2,1.8-22.4,2.4-33.7,1.4-41.4,7.5-82.6,7.6-124-1.5-27.3,0-54.6-.6-81.9-1-21.7-4.3-43.2-6.6-64.7-2.9-32.9-4-66-7.7-98.9-.7-16.3.6-32.8-2.6-48.9-5-26.4-8.4-52.7-7.1-79.5,1.9-24.4-5-48.2-4-72.6-.7-37.9,8.5-69.2,39-93.6,35.4-4.2,71-9.4,106.8-8.6,20.1,1.5,40.1.2,60.2-.3,13.4.2,26.9,1.6,40.4.6,45.4-4.2,91,.8,136.4,1.9,21.8-1.1,43.4,1,65.1,1.9,13.2-.3,26.4-.8,39.5,1.2,54.8,5.1,109.8,8.4,164.8,11.3,26.1-1,51.8-5.2,77.8-7.9,40.1-3.1,80.2-3.8,120.4-4.9,53.8-1.4,107.2-11.3,161-11.5,32.8,4.6,65.9,4.2,99,3.5,14.2,1.4,28.4,3.8,42.7,3.7,25.1,2.2,50-2.6,75.1-1.5,25-.8,50,1.5,75,.6,17.4-.8,34.2,4.1,51.5,4.8,45.4.7,90.8-1.3,136.1,1.2,30.2.7,60.2-4.7,90.3-5.8,20.8-.2,41.2,4.7,62,4.4,35.8.3,71.4,2.4,105.7,13.4,41.5,9.2,54.8,26.5,51.6,68.7.9,22.4-4.6,44.2-6.2,66.4-4.6,45.9-8.4,91.9-8.3,138.1-2.8,21.9-3.6,44-6.5,65.9-2.1,28.6,1.1,57.5,3.3,86,1.8,27-.7,54.2.9,81.3,1,12,3.3,23.8,2.8,35.9-.4,13.3-2.2,26.5-2.9,39.8-.9,18.5,3.7,36.6,5.3,54.9.9,15.7,8.1,30,12,45,1.2,6.3.7,12.9,2.8,19,3,9.7,13.3,14.2,18.4,22.4,3.4,11.3,1.9,23.6,4.8,35.1Z"/>
  <path class="st0" d="M1363.8,1103.8c21.8-12.1,55.8-12.1,52.1,21.1-1.4,18.3-8.9,41.9-30.8,42.1-15.5.7-40.7-4.5-40.2-24.1,1.6-14.8,13-26.1,18.9-39.1Z"/>
  <path class="st0" d="M1223.2,1073.6c16.3,9.5,3.3,30.9-5.1,41.8-11.6,12.9-29.8,16.4-45.1,23.3-8-3.9-7.9-16.6-15.8-20.1-18.8-41.2,33.7-71.2,65.9-45Z"/>
  <path class="st0" d="M658.9,1068.6c62.6-38.9,83.5,64.4,21.5,73.7-21.2-1.9-46.6-12.7-35.3-38.3,7.8,8.4,17.7-2.5,5.3-12.2,1.6-5.7,11.9-18.7,8.5-23.2Z"/>
  <path class="st0" d="M486.8,1104.5c29-10,55.9,4.6,44.7,37.4-9.2,12.2-25.9,18.9-40.8,21.4-37.5,1.3-13.9-41.5-3.9-58.8Z"/>
  <path class="st0" d="M945.1,765.3c8,9.9,19.8,15.4,30.5,21.7-9.3,14-19.4,28.9-32.5,39.6-2.3-11.9-4.3-23.2-19.7-20.3-17.1,0-34-2.6-51,1.4-2.5-9.2-2.5-19-1.8-28.4.7,0,1.4-.4,1.8-1,7.7-.2,15,1.9,22.6,2,8-1.8,16-.3,24-.2,16.1,1.3,27.1,9.4,26.1-14.9Z"/>
  <path class="st0" d="M1414.1,556.2c3.5,8.2,9.3,16.3,8.5,25.5-1.7,21.3-8.4,43-22.6,59.4-10,10.7-25,15.6-38.2,21.3-8.8,3-16.3,7.9-25.1,11.3-8.7,2.2-17.8,2.7-26.6,4.8-20.6-.4-49.9-3.1-65-18.2-20.5-23.1-25-52.7-14.9-81.5,4.2-23.2,14.6-46.7,31.6-63.4,12.5-8.4,28.2-12.7,42.9-15.7,12.6,9.9,31.4,8.2,46.1,14.1,20.9,14.3,50.3,18.6,63.3,42.3Z"/>
  <path class="st0" d="M659.3,528.9c17,18,23,44.9,10.8,67.2-9.4,17.8-21.7,33.4-38.5,44.7-12.8,9.5-29,14.5-44.5,17.8-9.5,2-17.9,7.7-27.7,8.2-8,.8-15.8,0-23.2-3.2-10.2-2.6-20.6-3.8-30.8-6.5-24.5-3-36.1-28.4-49-46.5-6.9-17.8-4-38.1-1.2-56.5.9-41.4,31.6-80,70.7-92.7,4.4,3.5,10.8,2.9,15.9,5,15.9,7.4,32.9,11.6,50.1,15.1,24.8,12.2,52.7,22.3,67.4,47.4Z"/>
</svg>