<?xml version="1.0" encoding="UTF-8"?>
<svg id="Layer_1" xmlns="http://www.w3.org/2000/svg" version="1.1" viewBox="0 0 5627.24 1928.8">
  <!-- Generator: Adobe Illustrator 29.4.0, SVG Export Plug-In . SVG Version: 2.1.0 Build 152)  -->
  <defs>
    <style>
      .st0 {
        fill: #fff4cf;
      }
    </style>
  </defs>
  <path class="st0" d="M5507.5,988.98l1.1-3.58c21.84.73,36.77-9.87,42.29-30.25,1.12-4.14,1.69-8.24,1.69-12.17,0-11.66-5.34-32.67-41.06-42.35-16.71-4.53-30.68-4.07-41.52,1.36-9.83,4.92-16.74,13.85-19.98,25.83-1.16,4.24-1.74,8.4-1.74,12.37,0,10.37,3.96,24.42,22.04,34.57l-.76,2.48c-31.48-9.05-62.96-18.11-94.45-27.16l1.68-5.47c21.78.69,36.67-9.92,42.18-30.25,1.12-4.15,1.7-8.24,1.7-12.17,0-11.66-5.34-32.68-41.06-42.36-16.71-4.53-30.68-4.07-41.53,1.36-9.83,4.93-16.73,13.86-19.98,25.84-1.15,4.23-1.73,8.4-1.73,12.37,0,10.39,3.98,24.46,22.13,34.62l-1.57,5.09c-31.49-9.05-62.98-18.08-94.47-27.1l2.52-8.2c21.72.65,36.57-9.96,42.07-30.25,1.12-4.15,1.69-8.24,1.69-12.17,0-11.67-5.33-32.68-41.06-42.35-16.71-4.53-30.68-4.08-41.52,1.35-9.83,4.93-16.74,13.86-19.98,25.84-1.15,4.23-1.73,8.4-1.73,12.37,0,10.42,3.99,24.52,22.22,34.68l-2.4,7.79c-31.5-9.01-63-18-94.52-26.96l3.41-11.09c21.66.61,36.47-10,41.96-30.25,1.12-4.15,1.69-8.24,1.69-12.17,0-11.67-5.34-32.68-41.06-42.36-16.71-4.53-30.68-4.07-41.52,1.36-9.83,4.92-16.74,13.85-19.98,25.84-1.16,4.24-1.74,8.41-1.74,12.38,0,10.43,4.02,24.57,22.32,34.73l-3.3,10.72c-31.52-8.95-63.05-17.86-94.58-26.74l4.4-14.29c21.6.57,36.37-10.04,41.85-30.26,1.12-4.15,1.69-8.24,1.69-12.17,0-11.67-5.33-32.67-41.06-42.35-16.71-4.53-30.68-4.07-41.52,1.36-9.83,4.92-16.74,13.86-19.99,25.84-1.15,4.24-1.73,8.4-1.73,12.37,0,10.46,4.03,24.63,22.42,34.79l-4.29,13.95c-31.55-8.86-63.1-17.68-94.67-26.45l5.5-17.87c21.53.53,36.26-10.08,41.73-30.25,1.12-4.15,1.69-8.24,1.69-12.17,0-11.66-5.34-32.67-41.06-42.35-16.71-4.53-30.68-4.07-41.52,1.35-9.83,4.92-16.74,13.86-19.98,25.84-1.15,4.24-1.73,8.4-1.73,12.37,0,10.48,4.05,24.67,22.52,34.83l-5.43,17.64c-22.45-6.22-44.9-12.43-67.36-18.6,203.86,72.67,408.34,143.56,612.8,214.56,48.46,16.82,108.69,26.64,152.03,52.9,53.93,32.68,92.21,94.62,61.08,161.5-58.03,125.25-151.24,45.56-212.56-5.75-137.08-114.69-335.69-10.72-508.4,2.25-138.18-242.58-643.06-154.64-876.7-156.04-300.68-1.78-601.36-3.37-902.05-4.34-303.91-.98-607.83-1.12-911.75-.89-42.42.03-181.63-22.08-211.94,14.12-56.07,66.96-83.04,149.24-77.99,237.55,13.64,238,188.52,223.55,347.79,309.45-.85,7.32-5.15,16.81-6.2,17.78-41.16,41.45-185.21,35.13-231.49,31.77-126.8-9.25-236.86-93.82-359.22-123.93-158.35-38.98-294.93,9.04-448.4,86.41-369.24,186.15-909.95,296.83-1014.24-252.52-41.64-219.34-23.09-462.11-19.05-685.81,5.11-282.35,175.11-563.98,481.14-571.92,370.85-9.61,662.54,293.77,1034.54,232.28,296.13-48.95,577.76-264.24,884.02-138.55-3.19-1.58-6.41-3.11-9.54-4.57-266.2-125.36-515.11,21.13-777.52,73.61-319.18,63.82-514.44-93.79-800.28-198.88C695.45-30.46,388.59-39.03,201.44,175.67,32.31,362.19,10.32,574.82,5.42,815.08c-7.66,375.4-54.08,862.13,355.89,1059.76,185.58,89.47,432.59,55.64,620.63-14.15,150.28-55.68,345.58-203.47,497.65-198.67,173.74,2.37,310.04,128.53,481.75,141.31,150.27,11.22,447.06-16.48,405.04-241.56-29.13-155.53-478.69-156.94-338.23-372.92,571.52-5.99,1143.01-13.27,1714.48-22.87,268.5-4.51,537-9.4,805.48-15.31,84.68-1.86,170.39,12.39,213.89,94.9,38.7,74.31,105.93,45.4,188.23,34,84.15-11.7,274.11-103.5,332.62-56.09,138.13,320.97,544.31-118.44,224.65-234.48v-.02Z"/>
</svg>